<svg width="15" height="15" viewBox="0 0 15 15" fill="none" xmlns="http://www.w3.org/2000/svg">
<path d="M1.37499 12.75H2.47899L9.99999 5.22901L8.91699 4.12501L1.37499 11.667V12.75ZM12.812 4.31201L9.81199 1.29201L10.583 0.521012C10.9023 0.215012 11.281 0.0620117 11.719 0.0620117C12.1563 0.0620117 12.5277 0.215012 12.833 0.521012L13.771 1.45801C14.021 1.72201 14.146 2.04501 14.146 2.42701C14.146 2.80901 14.014 3.12501 13.75 3.37501L12.812 4.31201ZM11.896 5.22901L3.04199 14.083H0.0419922V11.083L8.89599 2.22901L11.896 5.22901ZM9.45799 4.68801L8.91699 4.12501L9.99999 5.22901L9.45799 4.68801Z" fill="#1C1B1F"/>
</svg>
