<svg width="24" height="24" viewBox="0 0 24 24" fill="none" xmlns="http://www.w3.org/2000/svg">
    <path fill-rule="evenodd" clip-rule="evenodd" d="M20.5 10.15H3V8.84998H20.5V10.15Z" fill="black" />
    <path fill-rule="evenodd" clip-rule="evenodd" d="M21 15.65L3 15.65L3 14.35L21 14.35V15.65Z" fill="black" />
    <path
      fill-rule="evenodd"
      clip-rule="evenodd"
      d="M12 20.7C16.8049 20.7 20.7 16.8049 20.7 12C20.7 7.19512 16.8049 3.3 12 3.3C7.19512 3.3 3.3 7.19512 3.3 12C3.3 16.8049 7.19512 20.7 12 20.7ZM12 22C17.5228 22 22 17.5228 22 12C22 6.47715 17.5228 2 12 2C6.47715 2 2 6.47715 2 12C2 17.5228 6.47715 22 12 22Z"
      fill="black"
    />
    <path
      fill-rule="evenodd"
      clip-rule="evenodd"
      d="M9.76553 5.9C9.08653 7.42775 8.64998 9.58387 8.64998 12C8.64998 14.4161 9.08653 16.5722 9.76553 18.0999C10.1054 18.8646 10.4932 19.4432 10.8911 19.8219C11.2856 20.1973 11.6592 20.35 12 20.35V21.65C11.2362 21.65 10.5575 21.299 9.99489 20.7636C9.43564 20.2313 8.96156 19.4919 8.57757 18.6279C7.80885 16.8983 7.34998 14.5544 7.34998 12C7.34998 9.44552 7.80885 7.10164 8.57757 5.37202C8.96156 4.50804 9.43564 3.76861 9.99489 3.23638C10.5575 2.70097 11.2362 2.34998 12 2.34998V3.64998C11.6592 3.64998 11.2856 3.80266 10.8911 4.1781C10.4932 4.55672 10.1054 5.13531 9.76553 5.9Z"
      fill="black"
    />
    <path
      fill-rule="evenodd"
      clip-rule="evenodd"
      d="M14.2345 5.9C14.9135 7.42775 15.35 9.58387 15.35 12C15.35 14.4161 14.9135 16.5722 14.2345 18.0999C13.8946 18.8646 13.5068 19.4432 13.1089 19.8219C12.7144 20.1973 12.3408 20.35 12 20.35V21.65C12.7638 21.65 13.4425 21.299 14.0051 20.7636C14.5644 20.2313 15.0384 19.4919 15.4224 18.6279C16.1911 16.8983 16.65 14.5544 16.65 12C16.65 9.44552 16.1911 7.10164 15.4224 5.37202C15.0384 4.50804 14.5644 3.76861 14.0051 3.23638C13.4425 2.70097 12.7638 2.34998 12 2.34998V3.64998C12.3408 3.64998 12.7144 3.80266 13.1089 4.1781C13.5068 4.55672 13.8946 5.13531 14.2345 5.9Z"
      fill="black"
    />
  </svg>